<svg xmlns="http://www.w3.org/2000/svg" fill="none" viewBox="-2 -2 52 40" stroke-width="1.5" stroke="#0253E4">
  <title>Document Analysis Status</title>



  <!-- 1. Document Icon (Base) -->
  <g id="document-icon" stroke-width="1" transform="translate(3 8) " >
    <path strokeLinecap="round" strokeLinejoin="round" d="M19.5 14.25v-2.625a3.375 3.375 0 0 0-3.375-3.375h-1.5A1.125 1.125 0 0 1 13.5 7.125v-1.5a3.375 3.375 0 0 0-3.375-3.375H8.25m0 12.75h7.5m-7.5 3H12M10.5 2.25H5.625c-.621 0-1.125.504-1.125 1.125v17.25c0 .621.504 1.125 1.125 1.125h12.75c.621 0 1.125-.504 1.125-1.125V11.25a9 9 0 0 0-9-9Z" />
    <!-- <path stroke-linecap="round" stroke-linejoin="round" d="M15.75 17.25v3.375c0 .621-.504 1.125-1.125 1.125h-9.75a1.125 1.125 0 0 1-1.125-1.125V7.875c0-.621.504-1.125 1.125-1.125H6.75a9.06 9.06 0 0 1 1.5.124m7.5 10.376h3.375c.621 0 1.125-.504 1.125-1.125V11.25c0-4.46-3.243-8.161-7.5-8.876a9.06 9.06 0 0 0-1.5-.124H9.375c-.621 0-1.125.504-1.125 1.125v3.5m7.5 10.375H9.375a1.125 1.125 0 0 1-1.125-1.125v-9.25m12 6.625v-1.875a3.375 3.375 0 0 0-3.375-3.375h-1.5a1.125 1.125 0 0 1-1.125-1.125v-1.5a3.375 3.375 0 0 0-3.375-3.375H9.75" /> -->
  </g>

  <!-- 2. Search Magnifying Glass (Analyzing) -->
  <!-- Positioned over the top-right of the document, slightly smaller -->
  <g fill="rgba(2, 83, 228, 0.3)" stroke="#000000" id="search-icon" transform="translate(18 15) rotate(100) scale(0.5)">
    <path stroke-linecap="round" stroke-linejoin="round" d="m21 21-5.197-5.197m0 0A7.5 7.5 0 1 0 5.196 5.196a7.5 7.5 0 0 0 10.607 10.607Z" />
  </g>

  <!-- correct arrow -->
  <g stroke="#000000" id="search-icon" transform="translate(23 15) rotate(330) scale(0.3)">
    <path stroke-linecap="round" stroke-linejoin="round" d="M17.25 8.25 21 12m0 0-3.75 3.75M21 12H3" />
  </g>
  <!-- caution arrow -->
  <g stroke="#000000" id="search-icon" transform="translate(27 18) rotate(30) scale(0.3)">
    <path stroke-linecap="round" stroke-linejoin="round" d="M17.25 8.25 21 12m0 0-3.75 3.75M21 12H3" />
</g>
  


  <!-- 3. Check Mark in Circle (Good) -->
  <!-- Positioned to the right of the document, smaller -->
  <g stroke="#33AA33" id="check-icon" transform="translate(30 5) scale(0.55)">
    <path stroke-linecap="round" stroke-linejoin="round" d="M9 12.75 11.25 15 15 9.75M21 12a9 9 0 1 1-18 0 9 9 0 0 1 18 0Z" />
  </g>

  <!-- 4. Caution in Triangle (Bad) -->
  <!-- Positioned below the check mark, to the right of the document, smaller -->
  <g stroke="#FF3333" id="caution-icon" transform="translate(30 19) scale(0.55)">
    <path stroke-linecap="round" stroke-linejoin="round" d="M12 9v3.75m-9.303 3.376c-.866 1.5.217 3.374 1.948 3.374h14.71c1.73 0 2.813-1.874 1.948-3.374L13.949 3.378c-.866-1.5-3.032-1.5-3.898 0L2.697 16.126ZM12 15.75h.007v.008H12v-.008Z" />
  </g>

</svg>